HIERARCHY
ROOT Hips
{
  OFFSET 22.676 24.364 -258.706
  CHANNELS 6 Xposition Yposition Zposition Zrotation Xrotation Yrotation
  JOINT LeftUpLeg
  {
    OFFSET 8.002 -7.549 1.667
    CHANNELS 6 Xposition Yposition Zposition Zrotation Xrotation Yrotation
    JOINT LeftLeg
    {
      OFFSET -0.000 -47.102 0.000
      CHANNELS 6 Xposition Yposition Zposition Zrotation Xrotation Yrotation
      JOINT LeftFoot
      {
        OFFSET -0.000 -40.253 -0.000
        CHANNELS 6 Xposition Yposition Zposition Zrotation Xrotation Yrotation
        End Site
        {
          OFFSET 0.000 -8.722 5.035
        }
      }
    }
  }
  JOINT RightUpLeg
  {
    OFFSET -7.791 -7.318 1.904
    CHANNELS 6 Xposition Yposition Zposition Zrotation Xrotation Yrotation
    JOINT RightLeg
    {
      OFFSET 0.000 -45.963 0.000
      CHANNELS 6 Xposition Yposition Zposition Zrotation Xrotation Yrotation
      JOINT RightFoot
      {
        OFFSET 0.000 -43.473 -0.000
        CHANNELS 6 Xposition Yposition Zposition Zrotation Xrotation Yrotation
        End Site
        {
          OFFSET 0.000 -8.151 4.706
        }
      }
    }
  }
  JOINT Spine
  {
    OFFSET 0.000 5.996 -5.996
    CHANNELS 6 Xposition Yposition Zposition Zrotation Xrotation Yrotation
    JOINT LeftShoulder
    {
      OFFSET -0.000 38.433 0.000
      CHANNELS 6 Xposition Yposition Zposition Zrotation Xrotation Yrotation
      JOINT LeftArm
      {
        OFFSET 22.341 0.000 -0.000
        CHANNELS 6 Xposition Yposition Zposition Zrotation Xrotation Yrotation
        JOINT LeftForeArm
        {
          OFFSET 25.251 0.000 0.000
          CHANNELS 6 Xposition Yposition Zposition Zrotation Xrotation Yrotation
          JOINT LeftHand
          {
            OFFSET 27.112 0.000 -0.000
            CHANNELS 6 Xposition Yposition Zposition Zrotation Xrotation Yrotation
            JOINT LeftHandThumb1
            {
            OFFSET 4.970 -0.620 3.390
            CHANNELS 6 Xposition Yposition Zposition Zrotation Xrotation Yrotation
              JOINT LeftHandThumb2
              {
              OFFSET 2.150 -0.000 0.000
              CHANNELS 6 Xposition Yposition Zposition Zrotation Xrotation Yrotation
                JOINT LeftHandThumb3
                {
                OFFSET 2.200 -0.000 0.000
                CHANNELS 6 Xposition Yposition Zposition Zrotation Xrotation Yrotation
                  JOINT LeftHandThumb4
                  {
                  OFFSET 1.700 -0.000 0.000
                  CHANNELS 6 Xposition Yposition Zposition Zrotation Xrotation Yrotation
                  }
                }
              }
            }
            JOINT LeftHandIndex1
            {
            OFFSET 8.730 0.680 2.070
            CHANNELS 6 Xposition Yposition Zposition Zrotation Xrotation Yrotation
              JOINT LeftHandIndex2
              {
              OFFSET 2.670 -0.000 0.000
              CHANNELS 6 Xposition Yposition Zposition Zrotation Xrotation Yrotation
                JOINT LeftHandIndex3
                {
                OFFSET 2.130 -0.000 0.000
                CHANNELS 6 Xposition Yposition Zposition Zrotation Xrotation Yrotation
                  JOINT LeftHandIndex4
                  {
                  OFFSET 1.800 -0.000 0.000
                  CHANNELS 6 Xposition Yposition Zposition Zrotation Xrotation Yrotation
                  }
                }
              }
            }
            JOINT LeftHandMiddle1
            {
            OFFSET 9.220 0.670 0.550
            CHANNELS 6 Xposition Yposition Zposition Zrotation Xrotation Yrotation
              JOINT LeftHandMiddle2
              {
              OFFSET 2.660 -0.000 0.000
              CHANNELS 6 Xposition Yposition Zposition Zrotation Xrotation Yrotation
                JOINT LeftHandMiddle3
                {
                OFFSET 2.280 -0.000 0.000
                CHANNELS 6 Xposition Yposition Zposition Zrotation Xrotation Yrotation
                  JOINT LeftHandMiddle4
                  {
                  OFFSET 1.500 -0.000 0.000
                  CHANNELS 6 Xposition Yposition Zposition Zrotation Xrotation Yrotation
                  }
                }
              }
            }
            JOINT LeftHandRing1
            {
            OFFSET 9.250 0.670 -1.130
            CHANNELS 6 Xposition Yposition Zposition Zrotation Xrotation Yrotation
              JOINT LeftHandRing2
              {
              OFFSET 2.470 -0.000 0.000
              CHANNELS 6 Xposition Yposition Zposition Zrotation Xrotation Yrotation
                JOINT LeftHandRing3
                {
                OFFSET 2.210 -0.000 0.000
                CHANNELS 6 Xposition Yposition Zposition Zrotation Xrotation Yrotation
                  JOINT LeftHandRing4
                  {
                  OFFSET 1.800 -0.000 0.000
                  CHANNELS 6 Xposition Yposition Zposition Zrotation Xrotation Yrotation
                  }
                }
              }
            }
            JOINT LeftHandPinky1
            {
            OFFSET 9.350 0.660 -2.720
            CHANNELS 6 Xposition Yposition Zposition Zrotation Xrotation Yrotation
              JOINT LeftHandPinky2
              {
              OFFSET 1.630 -0.000 0.000
              CHANNELS 6 Xposition Yposition Zposition Zrotation Xrotation Yrotation
                JOINT LeftHandPinky3
                {
                OFFSET 1.710 -0.000 0.000
                CHANNELS 6 Xposition Yposition Zposition Zrotation Xrotation Yrotation
                  JOINT LeftHandPinky4
                  {
                  OFFSET 1.800 -0.000 0.000
                  CHANNELS 6 Xposition Yposition Zposition Zrotation Xrotation Yrotation
                  }
                }
              }
            }
          }
        }
      }
    }
    JOINT RightShoulder
    {
      OFFSET -0.000 38.433 0.000
      CHANNELS 6 Xposition Yposition Zposition Zrotation Xrotation Yrotation
      JOINT RightArm
      {
        OFFSET -21.995 0.000 -0.000
        CHANNELS 6 Xposition Yposition Zposition Zrotation Xrotation Yrotation
        JOINT RightForeArm
        {
          OFFSET -26.039 0.000 0.000
          CHANNELS 6 Xposition Yposition Zposition Zrotation Xrotation Yrotation
          JOINT RightHand
          {
            OFFSET -25.746 0.000 -0.000
            CHANNELS 6 Xposition Yposition Zposition Zrotation Xrotation Yrotation
            JOINT RightHandThumb1
            {
            OFFSET -4.970 -0.620 3.390
            CHANNELS 6 Xposition Yposition Zposition Zrotation Xrotation Yrotation
              JOINT RightHandThumb2
              {
              OFFSET -2.150 0.000 0.000
              CHANNELS 6 Xposition Yposition Zposition Zrotation Xrotation Yrotation
                JOINT RightHandThumb3
                {
                OFFSET -2.200 0.000 0.000
                CHANNELS 6 Xposition Yposition Zposition Zrotation Xrotation Yrotation
                  JOINT RightHandThumb4
                  {
                  OFFSET -1.700 0.000 0.000
                  CHANNELS 6 Xposition Yposition Zposition Zrotation Xrotation Yrotation
                  }
                }
              }
            }
            JOINT RightHandIndex1
            {
            OFFSET -8.730 0.680 2.070
            CHANNELS 6 Xposition Yposition Zposition Zrotation Xrotation Yrotation
              JOINT RightHandIndex2
              {
              OFFSET -2.670 0.000 0.000
              CHANNELS 6 Xposition Yposition Zposition Zrotation Xrotation Yrotation
                JOINT RightHandIndex3
                {
                OFFSET -2.130 0.000 0.000
                CHANNELS 6 Xposition Yposition Zposition Zrotation Xrotation Yrotation
                  JOINT RightHandIndex4
                  {
                  OFFSET -1.800 0.000 0.000
                  CHANNELS 6 Xposition Yposition Zposition Zrotation Xrotation Yrotation
                  }
                }
              }
            }
            JOINT RightHandMiddle1
            {
            OFFSET -9.220 0.670 0.550
            CHANNELS 6 Xposition Yposition Zposition Zrotation Xrotation Yrotation
              JOINT RightHandMiddle2
              {
              OFFSET -2.660 0.000 0.000
              CHANNELS 6 Xposition Yposition Zposition Zrotation Xrotation Yrotation
                JOINT RightHandMiddle3
                {
                OFFSET -2.280 0.000 0.000
                CHANNELS 6 Xposition Yposition Zposition Zrotation Xrotation Yrotation
                  JOINT RightHandMiddle4
                  {
                  OFFSET -1.500 0.000 0.000
                  CHANNELS 6 Xposition Yposition Zposition Zrotation Xrotation Yrotation
                  }
                }
              }
            }
            JOINT RightHandRing1
            {
            OFFSET -9.250 0.670 -1.130
            CHANNELS 6 Xposition Yposition Zposition Zrotation Xrotation Yrotation
              JOINT RightHandRing2
              {
              OFFSET -2.470 0.000 0.000
              CHANNELS 6 Xposition Yposition Zposition Zrotation Xrotation Yrotation
                JOINT RightHandRing3
                {
                OFFSET -2.210 0.000 0.000
                CHANNELS 6 Xposition Yposition Zposition Zrotation Xrotation Yrotation
                  JOINT RightHandRing4
                  {
                  OFFSET -1.800 0.000 0.000
                  CHANNELS 6 Xposition Yposition Zposition Zrotation Xrotation Yrotation
                  }
                }
              }
            }
            JOINT RightHandPinky1
            {
            OFFSET -9.350 0.660 -2.720
            CHANNELS 6 Xposition Yposition Zposition Zrotation Xrotation Yrotation
              JOINT RightHandPinky2
              {
              OFFSET -1.630 0.000 0.000
              CHANNELS 6 Xposition Yposition Zposition Zrotation Xrotation Yrotation
                JOINT RightHandPinky3
                {
                OFFSET -1.710 0.000 0.000
                CHANNELS 6 Xposition Yposition Zposition Zrotation Xrotation Yrotation
                  JOINT RightHandPinky4
                  {
                  OFFSET -1.800 0.000 0.000
                  CHANNELS 6 Xposition Yposition Zposition Zrotation Xrotation Yrotation
                  }
                }
              }
            }
          }
        }
      }
    }
    JOINT Neck
    {
      OFFSET -0.000 38.433 0.000
      CHANNELS 6 Xposition Yposition Zposition Zrotation Xrotation Yrotation
      JOINT Head
      {
        OFFSET -0.000 17.241 -0.000
        CHANNELS 6 Xposition Yposition Zposition Zrotation Xrotation Yrotation
        End Site
        {
          OFFSET -0.000 0.069 -0.000
        }
      }
    }
  }
}
MOTION
Frames:	4
Frame Time:	0.0333333
13.3527 24.2464 -258.4 -1.7268 -0.670775 10.7185 8.02188 -7.40376 1.29771 10.2851 -55.0548 10.188 -5.96046e-06 -38.0555 3.57628e-05 -11.4831 10.6616 -2.60631e-06 0 -36.5421 -2.38419e-05 0.992029 2.03151 -0.691827 -8.18305 -7.64213 1.79789 -0.048364 1.06746 -2.44611 -2.98023e-06 -47.2894 2.38419e-05 13.1517 19.158 -5.42298e-06 -8.9407e-06 -46.0783 2.38419e-05 -15.1995 -9.9121 -10.7253 0 5.96786 -5.96788 0.254154 -4.22219 0.421954 -1.19209e-05 38.4326 2.38419e-05 -39.9382 1.36604e-05 -1.61151 22.9429 -2.38419e-05 -7.15256e-05 -23.8205 3.28369 18.1356 25.9814 5.96046e-06 7.15256e-05 4.04841e-06 0 -37.7359 24.1944 -1.19209e-05 0 -1.65066 0.0321179 -3.88196 0.0062 0.0497 0.0339 0 0 0 0 0.0215 0 0 0 0 0 0.022 0 0 0 0 0 0.017 0 0 0 0 -0.0068 0.0873 0.0207 0 0 0 0 0.0267 0 0 0 0 0 0.0213 0 0 0 0 0 0.018 0 0 0 0 -0.0067 0.0922 0.0055 0 0 0 0 0.0266 0 0 0 0 0 0.0228 0 0 0 0 0 0.015 0 0 0 0 -0.0067 0.0925 -0.0113 0 0 0 0 0.0247 0 0 0 0 0 0.0221 0 0 0 0 0 0.018 0 0 0 0 -0.0066 0.0935 -0.0272 0 0 0 0 0.0163 0 0 0 0 0 0.0171 0 0 0 0 0 0.018 0 0 0 0 -1.19209e-05 38.4326 2.38419e-05 42.1796 -2.13443e-06 1.6711 -22.1248 -1.78814e-05 0 17.0362 5.44425 -6.64181 -23.7957 -1.19209e-05 -7.15256e-05 -1.91673e-06 7.68396e-06 46.6245 -25.0592 8.9407e-06 1.19209e-05 3.99544 0.104952 11.5126 -0.0062 0.0497 0.0339 45 0 0 0 0.0215 0 0 -45 0 0 0.022 0 0 -45 0 0 0.017 0 0 0 0 0.0068 0.0873 0.0207 45 0 0 0 0.0267 0 80 0 0 0 0.0213 0 90 0 0 0 0.018 0 0 0 0 0.0067 0.0922 0.0055 45 0 0 0 0.0266 0 80 0 0 0 0.0228 0 90 0 0 0 0.015 0 0 0 0 0.0067 0.0925 -0.0113 45 0 0 0 0.0247 0 80 0 0 0 0.0221 0 90 0 0 0 0.018 0 0 0 0 0.0066 0.0935 -0.0272 45 0 0 0 0.0163 0 80 0 0 0 0.0171 0 90 0 0 0 0.018 0 0 0 0 -1.19209e-05 38.4326 2.38419e-05 -10.8717 17.8655 3.37198 1.19209e-05 17.014 2.38419e-05 1.06722e-05 -1.28066e-05 0 
13.0576 25.2968 -259.172 -2.10814 -0.105133 11.8634 8.14435 -7.34082 1.42412 13.2868 -59.9844 12.3979 0 -38.1575 1.19209e-05 -12.0246 11.3624 -6.53131e-07 -5.96046e-06 -36.0943 0 3.80787 4.18817 0.641212 -8.31019 -7.72025 1.75838 1.05511 0.251476 -2.54642 0 -47.7742 4.76837e-05 11.6888 18.1259 0 2.98023e-06 -46.2788 2.38419e-05 -13.9721 -8.1519 -9.69147 0 5.98875 -5.98874 0.111748 -4.17182 0.247895 5.96046e-06 38.4326 -2.38419e-05 -39.9459 1.62217e-05 -2.05133 23.1265 -2.38419e-05 -7.15256e-05 -22.8453 1.54534 15.3486 25.1926 1.19209e-05 4.76837e-05 -2.94989e-06 -3.4151e-06 -40.8198 23.2215 -1.19209e-05 0 -1.18114 0.0389416 -5.95353 0.0062 0.0497 0.0339 0 0 0 0 0.0215 0 0 0 0 0 0.022 0 0 0 0 0 0.017 0 0 0 0 -0.0068 0.0873 0.0207 0 0 0 0 0.0267 0 0 0 0 0 0.0213 0 0 0 0 0 0.018 0 0 0 0 -0.0067 0.0922 0.0055 0 0 0 0 0.0266 0 0 0 0 0 0.0228 0 0 0 0 0 0.015 0 0 0 0 -0.0067 0.0925 -0.0113 0 0 0 0 0.0247 0 0 0 0 0 0.0221 0 0 0 0 0 0.018 0 0 0 0 -0.0066 0.0935 -0.0272 0 0 0 0 0.0163 0 0 0 0 0 0.0171 0 0 0 0 0 0.018 0 0 0 0 5.96046e-06 38.4326 -2.38419e-05 42.2877 -8.96462e-06 2.13537 -22.2166 -1.49012e-06 4.76837e-05 18.5405 7.80427 -6.74371 -24.2863 -1.49012e-05 4.76837e-05 8.78001e-06 3.4151e-06 46.26 -24.6817 0 2.38419e-05 3.65586 0.0731996 11.0659 -0.0062 0.0497 0.0339 45 0 0 0 0.0215 0 0 -45 0 0 0.022 0 0 -45 0 0 0.017 0 0 0 0 0.0068 0.0873 0.0207 45 0 0 0 0.0267 0 80 0 0 0 0.0213 0 90 0 0 0 0.018 0 0 0 0 0.0067 0.0922 0.0055 45 0 0 0 0.0266 0 80 0 0 0 0.0228 0 90 0 0 0 0.015 0 0 0 0 0.0067 0.0925 -0.0113 45 0 0 0 0.0247 0 80 0 0 0 0.0221 0 90 0 0 0 0.018 0 0 0 0 0.0066 0.0935 -0.0272 45 0 0 0 0.0163 0 80 0 0 0 0.0171 0 90 0 0 0 0.018 0 0 0 0 5.96046e-06 38.4326 -2.38419e-05 -10.9791 17.1147 3.26759 -1.19209e-05 16.8629 0 7.47052e-06 -1.36604e-05 -2.56132e-06 
12.816 26.2227 -259.776 -2.51007 0.38397 12.6668 8.22439 -7.31188 1.52209 18.2768 -64.2702 17.1177 0 -38.3438 5.96046e-06 -13.308 13.7789 -3.95582e-06 5.96046e-06 -36.1405 2.38419e-05 5.7031 5.96229 1.49978 -8.3989 -7.75721 1.72355 1.88095 -0.640671 -2.57031 0 -48.1408 0 10.2496 17.2631 0 0 -46.1671 -2.38419e-05 -12.8647 -7.67771 -8.89183 5.96046e-06 6.0053 -6.00531 -0.0346371 -4.09876 0.136535 -5.96046e-06 38.4325 7.15256e-05 -39.637 9.39151e-06 -2.45556 23.2277 1.19209e-05 2.38419e-05 -22.7011 0.424023 12.5782 24.3062 0 0 -9.07795e-06 1.70755e-06 -44.3631 22.6494 0 -4.76837e-05 -0.618422 -0.0285291 1.66729 0.0062 0.0497 0.0339 0 0 0 0 0.0215 0 0 0 0 0 0.022 0 0 0 0 0 0.017 0 0 0 0 -0.0068 0.0873 0.0207 0 0 0 0 0.0267 0 0 0 0 0 0.0213 0 0 0 0 0 0.018 0 0 0 0 -0.0067 0.0922 0.0055 0 0 0 0 0.0266 0 0 0 0 0 0.0228 0 0 0 0 0 0.015 0 0 0 0 -0.0067 0.0925 -0.0113 0 0 0 0 0.0247 0 0 0 0 0 0.0221 0 0 0 0 0 0.018 0 0 0 0 -0.0066 0.0935 -0.0272 0 0 0 0 0.0163 0 0 0 0 0 0.0171 0 0 0 0 0 0.018 0 0 0 0 -5.96046e-06 38.4325 7.15256e-05 42.2695 -2.56132e-06 2.56872 -22.205 1.3411e-05 -2.38419e-05 19.9723 9.77208 -6.93748 -24.7993 0 0 1.61757e-05 -8.53774e-06 45.91 -24.3883 -1.78814e-05 1.19209e-05 3.16647 0.041589 10.6681 -0.0062 0.0497 0.0339 45 0 0 0 0.0215 0 0 -45 0 0 0.022 0 0 -45 0 0 0.017 0 0 0 0 0.0068 0.0873 0.0207 45 0 0 0 0.0267 0 80 0 0 0 0.0213 0 90 0 0 0 0.018 0 0 0 0 0.0067 0.0922 0.0055 45 0 0 0 0.0266 0 80 0 0 0 0.0228 0 90 0 0 0 0.015 0 0 0 0 0.0067 0.0925 -0.0113 45 0 0 0 0.0247 0 80 0 0 0 0.0221 0 90 0 0 0 0.018 0 0 0 0 0.0066 0.0935 -0.0272 45 0 0 0 0.0163 0 80 0 0 0 0.0171 0 90 0 0 0 0.018 0 0 0 0 -5.96046e-06 38.4325 7.15256e-05 -10.9796 16.1365 3.08643 5.96046e-06 16.8418 -2.38419e-05 9.39151e-06 -8.53774e-06 0 
12.5067 27.3708 -260.59 -3.14335 1.09888 13.5698 8.31223 -7.28967 1.60341 27.3657 -67.7369 25.7984 -2.38419e-05 -39.1722 5.96046e-06 -15.638 15.596 5.09686e-06 5.96046e-06 -36.3222 -1.19209e-05 7.60155 8.3916 2.30717 -8.5112 -7.81235 1.67277 2.65396 -3.04838 -2.6423 5.96046e-06 -48.7096 -2.38419e-05 8.60621 17.252 0 2.98023e-06 -46.0876 -7.15256e-05 -10.7454 -8.0191 -7.58421 0 6.01692 -6.01692 -0.336788 -3.90758 -0.00390313 -1.78814e-05 38.4325 4.76837e-05 -39.3155 1.10991e-05 -2.93915 23.3376 1.19209e-05 -2.38419e-05 -23.1778 1.6803 7.64438 23.3296 -1.19209e-05 2.38419e-05 2.144e-06 1.70755e-06 -51.4651 22.5339 -5.96046e-06 0 -0.49773 0.0253213 -8.97454 0.0062 0.0497 0.0339 0 0 0 0 0.0215 0 0 0 0 0 0.022 0 0 0 0 0 0.017 0 0 0 0 -0.0068 0.0873 0.0207 0 0 0 0 0.0267 0 0 0 0 0 0.0213 0 0 0 0 0 0.018 0 0 0 0 -0.0067 0.0922 0.0055 0 0 0 0 0.0266 0 0 0 0 0 0.0228 0 0 0 0 0 0.015 0 0 0 0 -0.0067 0.0925 -0.0113 0 0 0 0 0.0247 0 0 0 0 0 0.0221 0 0 0 0 0 0.018 0 0 0 0 -0.0066 0.0935 -0.0272 0 0 0 0 0.0163 0 0 0 0 0 0.0171 0 0 0 0 0 0.018 0 0 0 0 -1.78814e-05 38.4325 4.76837e-05 42.261 -5.54953e-06 3.07453 -22.3108 1.04308e-05 -9.53674e-05 21.9968 12.3067 -7.19489 -25.2646 -1.78814e-05 0 7.66112e-06 6.83019e-06 45.1545 -24.2663 1.19209e-05 1.19209e-05 2.5953 0.0127707 9.78443 -0.0062 0.0497 0.0339 25.8656 0 0 0 0.0215 0 0 -25.8656 0 0 0.022 0 0 -25.8656 0 0 0.017 0 0 0 0 0.0068 0.0873 0.0207 25.8656 0 0 0 0.0267 0 45.9834 0 0 0 0.0213 0 51.7313 0 0 0 0.018 0 0 0 0 0.0067 0.0922 0.0055 25.8656 0 0 0 0.0266 0 45.9834 0 0 0 0.0228 0 51.7313 0 0 0 0.015 0 0 0 0 0.0067 0.0925 -0.0113 25.8656 0 0 0 0.0247 0 45.9834 0 0 0 0.0221 0 51.7313 0 0 0 0.018 0 0 0 0 0.0066 0.0935 -0.0272 25.8656 0 0 0 0.0163 0 45.9834 0 0 0 0.0171 0 51.7313 0 0 0 0.018 0 0 0 0 -1.78814e-05 38.4325 4.76837e-05 -10.8728 14.8025 2.80945 -5.96046e-06 16.7596 -4.76837e-05 7.25707e-06 -1.02453e-05 -1.70755e-06 
